<?xml version="1.0" encoding="utf-8"?>
<!-- Generator: Adobe Illustrator 23.0.1, SVG Export Plug-In . SVG Version: 6.00 Build 0)  -->
<svg version="1.1" id="Layer_1" xmlns="http://www.w3.org/2000/svg" xmlns:xlink="http://www.w3.org/1999/xlink" x="0px" y="0px"
	 viewBox="0 0 999.9 195.1" style="enable-background:new 0 0 999.9 195.1;" xml:space="preserve">
<style type="text/css">
	.st0{fill-rule:evenodd;clip-rule:evenodd;fill:#5B5B5B;}
	.st1{fill:#5B5B5B;}
</style>
<path id="COD-LOGO" class="st0" d="M129.5,115.2l-51.8,0.1l0.1,23.7c0,10.4-0.6,17-1.8,19.8c-1.3,2.8-6.8,4.2-10.9,4.2
	c-4.2,0-9.1-1.4-10.3-4.2c-1.2-2.8-1.8-8.8-1.9-18l-0.2-86c0-9.6,0.6-15.8,1.8-18.7c1.2-2.9,6.1-4.3,10.7-4.3c4,0,8.7,1.2,9.8,3.5
	s1.8,8.3,1.8,17.9l0.1,32.8l52.7-0.1l0-17.9c0-17.6-1.7-30.6-5-39c-3.3-8.3-10.2-15.3-20.7-20.9C93.1,2.7,79.8,0,63.7,0
	C51.8,0,41.3,1.9,32.2,5.5C23,9.2,15.9,14.1,10.7,20.4c-5.1,6.3-8.2,12.9-9.2,19.7c-1,6.8-1.5,17-1.5,30.6l0.1,53.4
	c0,18.5,1.8,32.4,5.2,41.6c3.4,9.2,10.3,16.4,20.7,21.6c10.4,5.2,23.6,7.8,39.7,7.7c15.4,0,28.4-3.2,38.9-9.3
	c10.5-6.2,17.3-13.4,20.4-21.6c3.1-8.2,4.6-22.1,4.5-41.6L129.5,115.2z M153,3.8l-27.5,186.3l49.5,0.2l4.5-38.3h0l4.7-40
	c1.7-15.9,5.2-36.5,9.5-69.1c3.5,31.7,5.7,52.5,8.6,73.6h-11.9l6.7,35.5h10.8l5.3,38.3l48.5-0.2L230.9,3.8L153,3.8L153,3.8z
	 M319.5,3.1h-53.9v186.3h86.7v-37.3h-32.8V3.1z M414.4,3.1h-53.9v186.3h86.7v-37.3h-32.8L414.4,3.1L414.4,3.1z M710.4,140.4
	c0,9.3-0.5,15.2-1.5,17.7c-1,2.5-6.1,3.7-9.6,3.7c-3,0-7.5-1.1-8.5-3.4c-1-2.3-1.5-7.5-1.5-15.6V5.7h-51.8v107.7
	c0,21,0.4,34.8,1.3,41.4c0.9,6.6,3.7,12.8,8.4,18.7c4.7,5.9,11.9,10.7,21.4,14.4c9.5,3.7,20.5,5.5,33,5.5c11.3,0,21-1.6,29.3-4.7
	c8.3-3.1,15-7.7,20.1-13.7c5.1-6,8.1-11.9,9.2-17.6c1-5.7,1.5-15.6,1.5-29.8V5.7h-51.4V140.4z M459.2,52.5c-1.5-2-3.4-3.3-5.9-4.3
	c-2.4-1-5.7-1.5-8.8-1.5c-3.2,0-6.6,0.5-9,1.6c-2.4,1.1-4.4,2.3-5.8,4.3c-1.4,2-1.8,3.1-2,5.5c-0.3,2.4-0.4,8.1-0.4,13.8v16.5
	c0,5.8,0.1,10.4,0.4,12.7c0.3,2.4,1.2,4.6,2.7,6.5c1.5,2,3.5,3,5.9,4c2.4,1,5.2,1.5,8.3,1.5c3.2,0,6.1-0.5,8.5-1.6
	c2.4-1,4.4-2.1,5.8-4c1.4-1.9,2.3-4.1,2.6-6.5c0.3-2.4,0.4-6.9,0.4-12.6V68.4c0-5.8-0.1-8.2-0.4-10.6
	C461.1,55.5,460.7,54.5,459.2,52.5z M446.9,96.8c0,3.3-0.1,5.4-0.4,6.3c-0.3,0.9-0.9,1.3-1.9,1.3c-1,0-1.6-0.4-1.9-1.2
	c-0.3-0.8-0.4-3.1-0.4-6.4V62.4c0-2.9,0.2-5.6,0.6-6.2c0.4-0.6,1.1-0.9,1.8-0.9c0.9,0,1.5,0.4,1.8,1.1c0.3,0.7,0.4,3.3,0.4,6
	L446.9,96.8L446.9,96.8z M467,112h15.1V82.4h9.4v-9.6h-9.4V58.2h10.5V47.4H467V112L467,112z M957.5,5l-21.2,65.4L914.7,5h-42l0,0.1
	H767.9v36.9h31.8v147.4h53.7V41.9h31.3l26.7,82v65.6h49.8v-65.6L999.9,5H957.5z M626.1,33.4c-1.2-6-4.2-11.5-9-16.4
	C612.2,12,605.2,8.5,596,6.4c-9.2-2.1-27-3.2-53.2-3.2h-40.6v186.3h68.5c13,0,22.7-0.6,29.2-1.9c6.4-1.3,11.9-3.5,16.2-6.7
	c4.4-3.2,7.5-7.6,9.2-13.2c1.8-5.6,2.6-16.8,2.6-33.5V68.9C627.9,51.2,627.3,39.4,626.1,33.4z M577.3,134.5c0,8.4-0.3,13.8-0.9,16.2
	c-0.6,2.4-2,4.1-4.1,5.2c-2.2,1.1-12.4,1.7-18.4,1.7V35c5.9,0,16.2,0.6,18.4,1.7c2.1,1.1,3.5,2.9,4.1,5.2c0.6,2.4,0.9,7.8,0.9,16.2
	V134.5L577.3,134.5z"/>
<path class="st1" d="M984.6,158.8L984.6,158.8c-8.6,0-15.5,6.8-15.5,15.3c0,8.7,6.9,15.4,15.4,15.4c8.6,0,15.4-6.7,15.4-15.4
	C999.9,165.6,993.1,158.8,984.6,158.8z M984.6,187.1c-6.9,0-12.5-5.7-12.5-13c0-7.1,5.6-12.9,12.5-12.9h0.1c6.9,0,12.5,5.8,12.5,13
	C997.1,181.4,991.5,187.2,984.6,187.1z"/>
<path class="st1" d="M987.4,174.7v-0.1c1.9-0.6,3.4-1.9,3.4-4.2c0-1.6-0.6-2.8-1.6-3.5c-1-0.7-2.8-1.3-5.4-1.3
	c-2.1,0-3.5,0.2-4.9,0.4V183h2.8v-7.4h1.9c2.2,0,3.3,0.8,3.7,3c0.4,2.3,0.8,3.8,1.2,4.4h2.9c-0.3-0.5-0.7-1.6-1.1-4.2
	C989.9,176.3,988.9,174.9,987.4,174.7z M983.6,173.6h-2v-5.8c0.5-0.1,1.1-0.1,2-0.1c3.1,0,4.2,1.5,4.2,3
	C987.8,172.8,985.9,173.6,983.6,173.6z"/>
</svg>
